<svg width="144" height="67" viewBox="0 0 144 67" fill="none" xmlns="http://www.w3.org/2000/svg">
<rect width="143.585" height="66.5394" transform="translate(0.226562 0.000244141)" fill="white"/>
<path d="M118.693 58.1215C113 58.1215 107.559 56.2514 103.163 52.7628C98.7672 56.2154 93.3262 58.1215 87.6331 58.1215C81.9399 58.1215 76.4989 56.2514 72.1029 52.7628C67.7069 56.2154 62.266 58.1215 56.5728 58.1215C50.8796 58.1215 45.4386 56.2514 41.0426 52.7628C36.6466 56.2154 31.2057 58.1215 25.5125 58.1215C18.8825 58.1215 12.6488 55.604 7.92848 51.0005C3.13611 46.397 0.469682 40.2471 0.361584 33.7015C0.253486 27.12 2.70372 20.8981 7.27988 16.1148C11.82 11.3674 17.9816 8.63412 24.6117 8.41833H24.7198H26.3052C31.7101 8.59816 36.8268 10.4683 41.0066 13.7411C45.1504 10.4683 50.267 8.59816 55.672 8.41833L55.7801 11.2236V8.41833H57.3655C62.7704 8.59816 67.8871 10.4683 72.0669 13.7411C76.2467 10.4683 81.3273 8.59816 86.7683 8.41833H86.8764H88.4618C93.8667 8.59816 98.9834 10.4683 103.163 13.7411C107.307 10.4683 112.424 8.59816 117.865 8.41833L117.973 11.2236V8.41833H119.558C126.152 8.63412 132.314 11.3674 136.89 16.1148C141.466 20.8621 143.916 27.12 143.808 33.6655C143.7 40.2471 141.034 46.397 136.313 51.0005C131.521 55.604 125.287 58.1215 118.693 58.1215ZM107.271 48.6988C110.478 51.0365 114.441 52.4391 118.693 52.4391C129.179 52.4391 137.863 43.9874 138.007 33.6296C138.187 23.2717 129.827 14.5683 119.378 14.1727H118.009C114.009 14.3165 110.334 15.6832 107.307 17.877C110.91 22.3726 112.784 27.9112 112.712 33.7015C112.568 39.2041 110.694 44.419 107.271 48.6988ZM76.2107 48.6988C79.4176 51.0365 83.3812 52.4391 87.6331 52.4391C91.8849 52.4391 95.8125 51.0365 99.0194 48.6988C95.6323 44.4549 93.7226 39.2041 93.6145 33.7015C93.5064 27.9112 95.4162 22.3726 99.0194 17.877C95.9927 15.6832 92.3173 14.3165 88.3177 14.1727H86.9484C82.9488 14.3165 79.2735 15.6832 76.2467 17.877C79.85 22.3726 81.7237 27.9112 81.6516 33.7015C81.5075 39.2041 79.5977 44.419 76.2107 48.6988ZM45.1143 48.6988C48.3213 51.0365 52.2849 52.4391 56.5367 52.4391C60.7886 52.4391 64.7162 51.0365 67.9231 48.6988C64.536 44.4549 62.6263 39.2041 62.5182 33.7015C62.4101 27.9112 64.3198 22.3726 67.9231 17.877C64.8964 15.6832 61.221 14.3165 57.2214 14.1727H55.8521C51.8525 14.3165 48.1771 15.6832 45.1504 17.877C48.7537 22.3726 50.6274 27.9112 50.5553 33.7015C50.4112 39.2041 48.5014 44.419 45.1143 48.6988ZM24.7558 14.1367C14.3063 14.4964 5.94667 23.2358 6.12683 33.5936C6.307 43.9514 14.9549 52.4031 25.4404 52.4031C29.6923 52.4031 33.6199 51.0005 36.8268 48.6628C33.4397 44.419 31.53 39.1681 31.4219 33.6655C31.3138 27.8752 33.2235 22.3367 36.8268 17.8411C33.8 15.6472 30.1247 14.2806 26.125 14.1367H24.7558ZM72.0669 21.9411C69.6167 25.2138 68.2114 29.2419 68.2834 33.5936C68.3555 37.6936 69.7608 41.5058 72.0669 44.5988C74.373 41.5058 75.7783 37.6936 75.8503 33.5936C75.9224 29.2419 74.4811 25.2138 72.0669 21.9411ZM40.9706 21.9411C38.5203 25.2138 37.1151 29.2419 37.1871 33.5936C37.2592 37.6936 38.6645 41.5058 40.9706 44.5988C43.2767 41.5058 44.6819 37.6936 44.754 33.5936C44.8261 29.2419 43.4208 25.2138 40.9706 21.9411ZM103.127 21.9411C100.677 25.2138 99.2717 29.2419 99.3437 33.5936C99.4158 37.6936 100.821 41.5058 103.127 44.5988C105.433 41.5058 106.839 37.6936 106.911 33.5936C107.019 29.2419 105.577 25.2138 103.127 21.9411Z" fill="#5F5F5F"/>
</svg>
