<svg width="225" height="67" viewBox="0 0 225 67" fill="none" xmlns="http://www.w3.org/2000/svg">
<rect width="224.133" height="66.5394" transform="translate(0.164307 0.000244141)" fill="white"/>
<path d="M213.945 35.7583L215.252 35.6529C215.788 35.6107 216.324 35.5474 216.817 35.4841C218.103 35.2942 219.196 34.9567 220.096 34.4926C220.439 34.3239 220.611 34.1973 220.996 33.9231C222.132 33.1215 222.711 32.0456 222.797 30.569C222.818 30.2737 222.797 30.0416 222.775 29.7885C222.711 28.8603 222.497 28.0798 222.111 27.4681C221.661 26.7297 221.018 26.1602 220.161 25.7383C219.303 25.3164 218.21 25 216.946 24.8101C216.946 24.8101 215.081 24.5148 212.316 24.5148H191.182V42.0446H197.827V35.8849H206.85L217.01 42.0657H224.297L213.945 35.7583ZM210.923 26.561C210.965 26.561 210.987 26.561 211.03 26.561C211.78 26.5821 212.423 26.6032 212.98 26.6664C213.688 26.7508 214.288 26.8985 214.759 27.1516C215.252 27.4048 215.638 27.7845 215.831 28.2486C216.024 28.6494 216.11 29.1556 216.131 29.7674C216.131 29.8096 216.152 30.6534 216.11 31.0753C216.088 31.4972 215.981 31.9613 215.831 32.2777C215.681 32.6152 215.467 32.8894 215.166 33.1215C215.081 33.1848 214.995 33.248 214.909 33.2902C214.481 33.5223 213.945 33.6699 213.259 33.7543C212.637 33.8176 211.844 33.8598 210.901 33.8598H197.784V26.561H210.923Z" fill="#5F5F5F"/>
<path d="M21.9839 24.5358V32.7839C21.9839 35.252 21.0622 37.0873 19.2404 38.2264C17.6757 39.2178 15.4037 39.7241 12.5102 39.7241H0.164307V42.0656H10.4096C13.2603 42.0656 15.8753 41.9602 18.1687 41.7492C20.4192 41.5383 22.3268 41.1164 23.87 40.4835C25.3704 39.8718 26.5493 38.9858 27.3637 37.8467C28.0925 36.813 28.4997 35.463 28.5855 33.7965C28.5855 33.6488 28.6069 33.4589 28.6069 33.248V24.5358H21.9839Z" fill="#5F5F5F"/>
<path d="M98.0528 34.0286V39.7242H87.9146C82.5991 39.7242 79.5126 38.0367 78.6767 34.7459C78.3337 33.3747 78.5481 32.0668 78.6767 31.5816C79.4912 28.2486 82.5348 26.6243 87.9146 26.6243H103.776V24.5359H89.9937C87.1001 24.5359 84.4852 24.6414 82.1918 24.8313C79.9627 25.0211 78.0337 25.443 76.4904 26.0548C74.9686 26.6665 73.8112 27.5314 73.0182 28.6705C72.2465 29.7464 71.8607 31.2019 71.8179 32.995C71.8179 33.0372 71.8179 33.0794 71.8179 33.1426C71.8179 33.227 71.8179 33.3114 71.8179 33.4169C71.8393 35.2732 72.2465 36.771 73.0396 37.8679C73.8541 39.007 75.0329 39.893 76.5333 40.5048C78.0765 41.1376 80.0056 41.5595 82.2347 41.7704C84.5281 41.9814 87.1216 42.0869 89.9937 42.0869H104.676V34.0286H98.0528Z" fill="#5F5F5F"/>
<path d="M53.7699 24.5359H46.9326L31.6074 42.0658H35.5727L39.0235 38.121H58.2925L61.7433 42.0658H69.1165L53.7699 24.5359ZM48.6473 27.1095L56.6421 36.2436H40.6739L48.6473 27.1095Z" fill="#5F5F5F"/>
<path d="M163.082 24.5359L147.757 42.0658H151.722L155.173 38.0999H174.42L177.871 42.0658H185.266L169.941 24.5359H163.082ZM172.813 36.2436H156.823L164.818 27.1095L172.813 36.2436Z" fill="#5F5F5F"/>
<path d="M138.133 24.5359V33.4169C138.133 34.1763 138.026 34.8724 137.876 35.5053C137.019 38.7328 133.954 40.3782 128.681 40.3993H128.017C122.723 40.3993 119.636 38.7117 118.8 35.442C118.65 34.8302 118.564 34.1552 118.564 33.438V24.5359H111.92V33.6911C111.92 35.5897 112.327 37.1507 113.142 38.2898C113.656 38.9859 114.299 39.6188 115.071 40.125C115.542 40.4204 116.057 40.6946 116.635 40.9266C117.214 41.1587 117.836 41.3696 118.522 41.5384C119.658 41.8337 120.944 42.0447 122.358 42.1923C124.137 42.3611 126.152 42.4666 128.338 42.4666C130.546 42.4666 132.539 42.3611 134.318 42.1923C135.711 42.0658 136.997 41.8548 138.133 41.5595C138.819 41.3907 139.441 41.1798 140.02 40.9477C140.598 40.7157 141.113 40.4626 141.584 40.1461C142.377 39.6399 143.02 39.0281 143.513 38.3109C144.328 37.1718 144.735 35.6107 144.735 33.7122V24.5359H138.133Z" fill="#5F5F5F"/>
</svg>
