<svg width="80" height="67" viewBox="0 0 80 67" fill="none" xmlns="http://www.w3.org/2000/svg">
<rect width="78.7967" height="66.5394" transform="translate(0.297119 0.000244141)" fill="white"/>
<path d="M11.4817 23.0479C15.5812 11.1627 26.9149 3.13216 39.6954 3.13216C52.476 3.13216 63.8097 11.1627 67.9092 23.0479V23.1282H76.9118V22.0843L73.2143 21.6827C70.8833 21.4418 70.401 20.3979 69.7579 19.113L69.5972 18.7917C64.2116 7.38836 52.476 0.000244141 39.6954 0.000244141C26.9149 0.000244141 15.1793 7.38836 9.71335 18.7917L9.55259 19.113C8.98992 20.3979 8.42725 21.4418 6.17659 21.6827L2.39868 22.0843V23.1282H11.4013L11.4817 23.0479Z" fill="#5F5F5F"/>
<path d="M67.9895 42.8835V42.9638C63.8097 54.849 52.476 62.8796 39.6954 62.8796C26.9149 62.8796 15.5812 54.849 11.4817 42.9638V42.8835H2.39868V43.9275L6.17659 44.329C8.50763 44.5699 8.98992 45.6139 9.63297 46.8988L9.79373 47.22C15.0989 58.6234 26.9149 66.0115 39.6954 66.0115C52.476 66.0115 64.2116 58.6234 69.6775 47.22L69.8383 46.8988C70.4813 45.6139 70.9636 44.6502 73.2947 44.329L77.0726 43.9275V42.8835H67.9895Z" fill="#5F5F5F"/>
<path d="M18.5555 28.8299H16.4656V37.9847H18.5555V28.8299Z" fill="#5F5F5F"/>
<path d="M11.5619 37.9044V28.8299H9.5524V35.6559L2.88078 28.8299H0.308594V37.9044H2.31812V31.0785L9.07012 37.9044H11.5619Z" fill="#5F5F5F"/>
<path d="M57.2985 28.8299L51.6719 37.9847H54.0833L55.0479 36.3786H61.5587L62.5233 37.9847H64.9347L59.3081 28.8299H57.2985ZM60.5942 34.6119H56.0928L58.3435 30.9178L60.5942 34.6119Z" fill="#5F5F5F"/>
<path d="M45.9651 36.0575C45.8847 36.0575 45.6436 36.0575 45.5632 36.0575H37.1232V37.9045H45.6436C45.724 37.9045 46.2063 37.9045 46.2867 37.9045C48.055 37.7439 48.7785 36.3787 48.7785 35.0938C48.7785 33.8089 47.9747 32.5241 46.367 32.3634C46.1259 32.3634 45.8847 32.3634 45.724 32.3634H40.1777C39.9366 32.3634 39.7758 32.3634 39.5347 32.2831C39.1327 32.2028 38.8916 31.8816 38.972 31.4801C38.972 31.0786 39.2131 30.7573 39.615 30.677C39.7758 30.5967 40.0169 30.5967 40.1777 30.5967H48.2158V28.7497H40.0973C39.8562 28.7497 39.5347 28.7497 39.2935 28.83C37.927 28.9906 36.8821 30.1149 36.8821 31.4801C36.8821 32.6044 37.6055 33.9696 39.2131 34.1302C39.5347 34.1302 39.7758 34.2105 40.0973 34.1302H45.4828C45.5632 34.1302 45.8044 34.1302 45.8847 34.1302C46.367 34.2105 46.6886 34.612 46.6886 35.0135C46.6886 35.5757 46.367 35.9772 45.9651 36.0575Z" fill="#5F5F5F"/>
<path d="M31.1748 36.0574C31.0945 36.0574 30.8533 36.0574 30.7729 36.0574H22.4133V37.9044H30.8533C30.9337 37.9044 31.416 37.9044 31.4964 37.9044C33.2647 37.7438 34.0686 36.3786 34.0686 35.174C34.0686 33.9695 33.2647 32.6043 31.6571 32.4436C31.416 32.4436 31.1748 32.4436 31.0141 32.4436H25.4678C25.2267 32.4436 25.0659 32.4436 24.8247 32.3633C24.4228 32.283 24.1817 31.9618 24.2621 31.5603C24.2621 31.1588 24.5032 30.8375 24.9051 30.7572C25.0659 30.6769 25.307 30.6769 25.4678 30.6769H33.5059V28.8299H25.307C25.0659 28.8299 24.7444 28.8299 24.5032 28.9102C23.1367 29.0708 22.0918 30.1951 22.0918 31.5603C22.0918 32.6846 22.8152 34.0498 24.4228 34.2104C24.7444 34.2104 24.9855 34.2907 25.307 34.2104H30.6926C30.7729 34.2104 31.0141 34.2104 31.0945 34.2104C31.5767 34.2907 31.8983 34.6922 31.8983 35.0937C31.9787 35.5756 31.5767 35.9771 31.1748 36.0574Z" fill="#5F5F5F"/>
<path d="M79.0819 37.9044V28.8299H77.0724V35.6559L70.4008 28.8299H67.8286V37.9044H69.8381V31.0785L76.5901 37.9044H79.0819Z" fill="#5F5F5F"/>
<path d="M73.8572 60.4704C74.8218 60.4704 75.6256 61.2735 75.6256 62.2371C75.6256 63.2008 74.8218 64.0038 73.8572 64.0038C72.8927 64.0038 72.0889 63.2008 72.0889 62.2371C72.0889 61.7553 72.2496 61.3538 72.6515 60.9522C72.8927 60.631 73.375 60.3901 73.8572 60.4704ZM73.8572 63.6023C74.2592 63.6023 74.5807 63.4417 74.8218 63.2008C75.063 62.9599 75.2237 62.5583 75.2237 62.2371C75.2237 61.5144 74.5807 60.8719 73.8572 60.9522C73.1338 60.9522 72.4908 61.5947 72.4908 62.3174C72.4908 62.9599 73.0534 63.6023 73.8572 63.6023ZM73.1338 63.1205V61.3538C73.375 61.3538 73.5357 61.2735 73.7769 61.2735C74.0984 61.2735 74.5807 61.3538 74.5807 61.7553C74.5807 61.9962 74.4199 62.1568 74.1788 62.1568C74.3395 62.2371 74.4199 62.3977 74.5003 62.5583C74.5003 62.719 74.5807 62.8796 74.6611 62.9599H74.2592C74.1788 62.7993 74.1788 62.6387 74.0984 62.5583C74.018 62.3174 73.8572 62.3174 73.5357 62.3174V63.0402L73.1338 63.1205ZM73.5357 62.0765C73.8572 62.0765 74.1788 62.0765 74.1788 61.8356C74.1788 61.675 74.0984 61.5947 73.7769 61.5947C73.6965 61.5947 73.6161 61.5947 73.5357 61.5947V62.0765Z" fill="#5F5F5F"/>
</svg>
