<svg width="225" height="67" viewBox="0 0 225 67" fill="none" xmlns="http://www.w3.org/2000/svg">
<rect width="224.133" height="66.5394" transform="translate(0.09375 0.000244141)" fill="white"/>
<g clip-path="url(#clip0_12_523)">
<path d="M3.89494 27.1276L11.6139 40.935L20.5367 40.9583L28.114 27.1276H31.9145V24.613H20.4895V27.1276H23.7943L18.2706 37.1863L12.6761 27.1276H16.689V24.613H0.0944824V27.1276H3.89494Z" fill="#5F5F5F"/>
<path d="M102.164 27.1277V24.6363H117.46V27.1277H113.659V38.4204H117.2C120.481 38.4204 122.629 36.2782 122.629 33.391H125.155V40.9583H102.187V38.3971H106.035V27.1044H102.164V27.1277Z" fill="#5F5F5F"/>
<path d="M65.0797 24.2637C57.4079 24.2637 53.3242 28.0357 53.3242 32.7856C53.3242 37.5821 57.2427 41.424 65.1269 41.424C73.0111 41.424 76.8824 37.5821 76.8824 32.7856C76.8824 28.059 72.775 24.2637 65.0797 24.2637ZM65.0089 38.8395C62.1998 38.7929 60.9724 35.7427 61.0196 32.6925C61.0668 29.5492 62.6011 26.8017 65.2213 26.8482C67.8415 26.8948 69.2342 29.6889 69.187 32.8322C69.1398 35.7893 67.8887 38.886 65.0089 38.8395Z" fill="#5F5F5F"/>
<path d="M151.216 27.1276L158.935 40.935L167.858 40.9583L175.435 27.1276H179.235V24.613H167.81V27.1276H171.115L165.591 37.1863L159.997 27.1276H164.01V24.613H147.415V27.1276H151.216Z" fill="#5F5F5F"/>
<path d="M212.401 24.2637C204.729 24.2637 200.645 28.0357 200.645 32.7856C200.645 37.5821 204.564 41.424 212.448 41.424C220.332 41.424 224.203 37.5821 224.203 32.7856C224.203 28.059 220.096 24.2637 212.401 24.2637ZM212.33 38.8395C209.521 38.7929 208.293 35.7427 208.341 32.6925C208.388 29.5492 209.922 26.8017 212.542 26.8482C215.163 26.8948 216.555 29.6889 216.508 32.8322C216.461 35.7893 215.21 38.886 212.33 38.8395Z" fill="#5F5F5F"/>
</g>
<defs>
<clipPath id="clip0_12_523">
<rect width="224.133" height="17.1835" fill="white" transform="translate(0.0939941 24.2404)"/>
</clipPath>
</defs>
</svg>
